<svg xmlns="http://www.w3.org/2000/svg" width="36" height="36" viewBox="0 0 36 36">
  <path id="icons8-adobe-xd" d="M5,5V41H41V5ZM8.273,8.273H37.727V37.727H8.273Zm3.273,6.545L15.636,23l-4.091,8.182h3.273l2.455-4.909,2.455,4.909H23L18.909,23,23,14.818H19.727l-2.455,4.909-2.455-4.909Zm18,0v6.545H27.091A4.116,4.116,0,0,0,23,25.455v1.636a4.116,4.116,0,0,0,4.091,4.091h5.727V14.818Zm-2.455,9.818h2.455v3.273H27.091a.8.8,0,0,1-.818-.818V25.455A.8.8,0,0,1,27.091,24.636Z" transform="translate(-5 -5)" fill="#3a3a3a"/>
</svg>
