<svg xmlns="http://www.w3.org/2000/svg" width="84" height="84" viewBox="0 0 84 84">
  <path id="iconmonstr-behance-4" d="M30.94,37.923H24.063V31.416H30.3C36.876,31.416,36.064,37.923,30.94,37.923Zm20.261,3.7h9.184C59.983,35.721,52.126,35.291,51.2,41.625Zm-20.65,1.386H24.063v6.815h6.384C36.683,49.822,36.3,43.011,30.552,43.011ZM84,42A42,42,0,1,1,42,0,42,42,0,0,1,84,42ZM37.25,39.435c5.838-2.986,5.625-13.934-5.555-14.1H17.5V55.891H30.7C44.551,55.891,44.317,42.007,37.25,39.435ZM49,28.354H63V25.291H49ZM66.3,41.279c-1.908-12.268-21.186-12.988-21.186,3.052,0,15.841,18.13,13.363,20.821,5.46H59.469a4.95,4.95,0,0,1-8.414-4.144H66.49A27.3,27.3,0,0,0,66.3,41.279Z" fill="#707070"/>
</svg>
