<svg xmlns="http://www.w3.org/2000/svg" width="1566" height="330" viewBox="0 0 1566 330">
  <g id="DesignFlow" transform="translate(-177 -2019)">
    <g id="Group_29" data-name="Group 29" transform="translate(-36 -524)">
      <circle id="Ellipse_7" data-name="Ellipse 7" cx="165" cy="165" r="165" transform="translate(213 2543)" fill="rgba(123,200,255,0.3)"/>
      <circle id="Ellipse_8" data-name="Ellipse 8" cx="165" cy="165" r="165" transform="translate(1037 2543)" fill="rgba(123,200,255,0.3)"/>
      <circle id="Ellipse_9" data-name="Ellipse 9" cx="165" cy="165" r="165" transform="translate(625 2543)" fill="rgba(123,200,255,0.3)"/>
      <circle id="Ellipse_10" data-name="Ellipse 10" cx="165" cy="165" r="165" transform="translate(1449 2543)" fill="rgba(123,200,255,0.3)"/>
    </g>
    <g id="Polygon_1" data-name="Polygon 1" transform="translate(575.5 2152) rotate(90)" fill="#8e8e8e">
      <path d="M 63.13061904907227 54.5 L 0.8693753480911255 54.5 L 31.99999809265137 0.9942421913146973 L 63.13061904907227 54.5 Z" stroke="none"/>
      <path d="M 31.99999809265137 1.988491058349609 L 1.738758087158203 54 L 62.26123809814453 54 L 31.99999809265137 1.988491058349609 M 31.99999809265137 0 L 64 55 L -3.814697265625e-06 55 L 31.99999809265137 0 Z" stroke="none" fill="#707070"/>
    </g>
    <g id="Polygon_2" data-name="Polygon 2" transform="translate(987.5 2152) rotate(90)" fill="#8e8e8e">
      <path d="M 63.13061904907227 54.5 L 0.8693753480911255 54.5 L 31.99999809265137 0.9942421913146973 L 63.13061904907227 54.5 Z" stroke="none"/>
      <path d="M 31.99999809265137 1.988491058349609 L 1.738758087158203 54 L 62.26123809814453 54 L 31.99999809265137 1.988491058349609 M 31.99999809265137 0 L 64 55 L -3.814697265625e-06 55 L 31.99999809265137 0 Z" stroke="none" fill="#707070"/>
    </g>
    <g id="Polygon_3" data-name="Polygon 3" transform="translate(1410 2152) rotate(90)" fill="#8e8e8e">
      <path d="M 63.13061904907227 54.5 L 0.8693753480911255 54.5 L 31.99999809265137 0.9942421913146973 L 63.13061904907227 54.5 Z" stroke="none"/>
      <path d="M 31.99999809265137 1.988491058349609 L 1.738758087158203 54 L 62.26123809814453 54 L 31.99999809265137 1.988491058349609 M 31.99999809265137 0 L 64 55 L -3.814697265625e-06 55 L 31.99999809265137 0 Z" stroke="none" fill="#707070"/>
    </g>
    <text id="Design_Inception" data-name="Design 
Inception" transform="translate(650 2166)" fill="#707070" font-size="48" font-family="Avenir-Book, Avenir"><tspan x="0" y="0">Design </tspan><tspan x="0" y="66">Inception</tspan></text>
    <text id="Research" transform="translate(241 2200)" fill="#707070" font-size="48" font-family="Avenir-Book, Avenir"><tspan x="0" y="0">Research</tspan></text>
    <text id="Design" transform="translate(1078 2198)" fill="#707070" font-size="48" font-family="Avenir-Book, Avenir"><tspan x="0" y="0">Design</tspan></text>
    <text id="Testing" transform="translate(1498 2198)" fill="#707070" font-size="48" font-family="Avenir-Book, Avenir"><tspan x="0" y="0">Testing</tspan></text>
  </g>
</svg>
