<svg xmlns="http://www.w3.org/2000/svg" width="57" height="57" viewBox="0 0 57 57">
  <g id="Group_25" data-name="Group 25" transform="translate(-514 -2624)">
    <circle id="Ellipse_4" data-name="Ellipse 4" cx="28.5" cy="28.5" r="28.5" transform="translate(514 2624)" fill="rgba(255,255,255,0.3)"/>
    <g id="email-24px" transform="translate(531 2641)">
      <path id="Path_3" data-name="Path 3" d="M0,0H24V24H0Z" fill="none"/>
      <path id="Path_4" data-name="Path 4" d="M20,4H4A2,2,0,0,0,2.01,6L2,18a2.006,2.006,0,0,0,2,2H20a2.006,2.006,0,0,0,2-2V6A2.006,2.006,0,0,0,20,4Zm0,4-8,5L4,8V6l8,5,8-5Z" fill="#fff"/>
    </g>
  </g>
</svg>
