<svg xmlns="http://www.w3.org/2000/svg" width="25.517" height="37" viewBox="0 0 25.517 37">
  <path id="icons8-figma" d="M14.293,1A7.009,7.009,0,0,0,9.705,13.315,7.006,7.006,0,0,0,9,25.241a7.014,7.014,0,1,0,11.037,5.741V15.034H24.5A7.017,7.017,0,0,0,24.5,1Zm0,2.552H24.5a4.466,4.466,0,0,1,0,8.931H14.293a4.466,4.466,0,1,1,0-8.931ZM13.017,15.034h4.466v8.931H13.017a4.466,4.466,0,0,1,0-8.931Zm12.121,0a5.1,5.1,0,1,0,5.1,5.1A5.1,5.1,0,0,0,25.138,15.034ZM13.017,26.517h4.466v4.466a4.466,4.466,0,1,1-4.466-4.466Z" transform="translate(-6 -1)" fill="#303030"/>
</svg>
