<svg xmlns="http://www.w3.org/2000/svg" width="24" height="19.5" viewBox="0 0 24 19.5">
  <path id="icons8-twitter-2" d="M24,4.3a9.085,9.085,0,0,1-2.8.8,5.322,5.322,0,0,0,2.2-2.7,9.124,9.124,0,0,1-3.1,1.2A5.235,5.235,0,0,0,16.6,2a4.907,4.907,0,0,0-4.9,4.9A3.7,3.7,0,0,0,11.8,8,13.68,13.68,0,0,1,1.7,2.9,4.3,4.3,0,0,0,1,5.4,5.014,5.014,0,0,0,3.2,9.5,7.112,7.112,0,0,1,1,8.9V9a4.854,4.854,0,0,0,3.9,4.8,5.135,5.135,0,0,1-1.3.2,2.742,2.742,0,0,1-.9-.1,4.747,4.747,0,0,0,4.6,3.4,10,10,0,0,1-6.1,2.1A4.976,4.976,0,0,1,0,19.3a14.011,14.011,0,0,0,7.5,2.2,13.873,13.873,0,0,0,14-14V6.9A10.267,10.267,0,0,0,24,4.3" transform="translate(0 -2)" fill="rgba(255,255,255,0.8)"/>
</svg>
