<svg xmlns="http://www.w3.org/2000/svg" width="29.728" height="18.637" viewBox="0 0 29.728 18.637">
  <path id="behance" d="M11.974,83.751a3.917,3.917,0,0,0,2.5-3.819c0-3.644-2.715-4.531-5.847-4.531H0V93.691H8.867c3.324,0,6.446-1.595,6.446-5.311a4.407,4.407,0,0,0-3.339-4.629ZM4.02,78.522H7.793c1.45,0,2.756.408,2.756,2.09,0,1.553-1.017,2.178-2.452,2.178H4.02Zm4.3,12.061H4.02V85.547H8.4c1.77,0,2.89.738,2.89,2.612C11.292,90.006,9.956,90.584,8.32,90.584Zm18.5-12.423H19.406v-1.8h7.416Zm2.906,9.1c0-3.917-2.292-7.184-6.446-7.184a6.655,6.655,0,0,0-6.776,7.009c0,4.124,2.6,6.952,6.776,6.952a5.9,5.9,0,0,0,6.2-4.454H26.27A3.013,3.013,0,0,1,23.4,91.312c-2.132,0-3.251-1.249-3.251-3.37H29.7C29.712,87.725,29.728,87.492,29.728,87.26Zm-9.579-1.61a2.843,2.843,0,0,1,3.019-2.828c1.827,0,2.746,1.074,2.9,2.828Z" transform="translate(0 -75.4)" fill="rgba(255,255,255,0.8)"/>
</svg>
