<svg xmlns="http://www.w3.org/2000/svg" width="25.444" height="25.444" viewBox="0 0 25.444 25.444">
  <path id="icons8-dribbble" d="M7.029,4A3.038,3.038,0,0,0,4,7.029V26.415a3.038,3.038,0,0,0,3.029,3.029H26.415a3.038,3.038,0,0,0,3.029-3.029V7.029A3.038,3.038,0,0,0,26.415,4Zm0,1.212H26.415a1.808,1.808,0,0,1,1.817,1.817V26.415a1.808,1.808,0,0,1-1.817,1.817H7.029a1.808,1.808,0,0,1-1.817-1.817V7.029A1.808,1.808,0,0,1,7.029,5.212Zm10.4,3.029c-2.5,0-2.529,6.222-2.529,6.285,0,.732,0,1.212.049,1.817a3.623,3.623,0,0,0-1.183-.2c-2.572,0-3.712,2.62-3.712,4.843A3.915,3.915,0,0,0,14.087,25.2,4.237,4.237,0,0,0,17.4,23.179a2.885,2.885,0,0,0,2.24.8c1.948,0,3.238-3.515,3.7-4.929a.854.854,0,0,0-.586-1.078.906.906,0,0,0-1.123.561c-.548,1.67-1.125,3.2-2.036,3.641-.318.152-.807-.046-1.287-.682A16.357,16.357,0,0,0,19.751,14.6C19.751,9.315,18.621,8.241,17.433,8.241Zm.071,1.846c.282.4.457,1.629.457,4.514a14.734,14.734,0,0,1-.639,4.9,17.112,17.112,0,0,1-.626-4.979A10.906,10.906,0,0,1,17.5,10.086Zm-3.735,7.847a2.313,2.313,0,0,1,1.348.491.933.933,0,0,0,.141.115A12.664,12.664,0,0,0,16.3,21.676c-.668,1.092-1.458,1.71-2.228,1.71a2.064,2.064,0,0,1-2.2-2.347C11.875,20.92,11.838,17.933,13.769,17.933Z" transform="translate(-4 -4)" fill="rgba(255,255,255,0.8)"/>
</svg>
