<svg xmlns="http://www.w3.org/2000/svg" width="35.837" height="35.837" viewBox="0 0 35.837 35.837">
  <path id="iconmonstr-github-5" d="M17.918,2.986A14.932,14.932,0,1,1,2.986,17.918,14.949,14.949,0,0,1,17.918,2.986Zm0-2.986A17.918,17.918,0,1,0,35.837,17.918,17.919,17.919,0,0,0,17.918,0Zm0,8.959a8.96,8.96,0,0,0-2.831,17.46c.448.084.591-.194.591-.432V24.32c-2.492.542-3.012-1.056-3.012-1.056a2.37,2.37,0,0,0-.994-1.311c-.812-.557.061-.545.061-.545a1.881,1.881,0,0,1,1.374.924,1.908,1.908,0,0,0,2.607.745,1.9,1.9,0,0,1,.569-1.2c-1.99-.227-4.081-1-4.081-4.427a3.464,3.464,0,0,1,.923-2.4,3.23,3.23,0,0,1,.087-2.374s.753-.24,2.464.918a8.495,8.495,0,0,1,4.487,0c1.711-1.159,2.461-.918,2.461-.918a3.227,3.227,0,0,1,.09,2.371,3.456,3.456,0,0,1,.921,2.4c0,3.442-2.1,4.2-4.091,4.42a2.136,2.136,0,0,1,.615,1.659v2.458c0,.239.143.518.6.43A8.959,8.959,0,0,0,17.918,8.959Z" fill="#303030"/>
</svg>
