<svg xmlns="http://www.w3.org/2000/svg" width="57" height="57" viewBox="0 0 57 57">
  <g id="Group_24" data-name="Group 24" transform="translate(-514 -2553)">
    <circle id="Ellipse_6" data-name="Ellipse 6" cx="28.5" cy="28.5" r="28.5" transform="translate(514 2553)" fill="rgba(255,255,255,0.3)"/>
    <g id="phone-24px" transform="translate(531 2570)">
      <path id="Path_7" data-name="Path 7" d="M0,0H24V24H0Z" fill="none"/>
      <path id="Path_8" data-name="Path 8" d="M6.62,10.79a15.149,15.149,0,0,0,6.59,6.59l2.2-2.2a.994.994,0,0,1,1.02-.24,11.407,11.407,0,0,0,3.57.57,1,1,0,0,1,1,1V20a1,1,0,0,1-1,1A17,17,0,0,1,3,4,1,1,0,0,1,4,3H7.5a1,1,0,0,1,1,1,11.36,11.36,0,0,0,.57,3.57,1,1,0,0,1-.25,1.02Z" fill="#fff"/>
    </g>
  </g>
</svg>
