<svg xmlns="http://www.w3.org/2000/svg" width="36" height="36" viewBox="0 0 36 36">
  <path id="icons8-adobe-photoshop" d="M13.5,6A7.523,7.523,0,0,0,6,13.5v21A7.523,7.523,0,0,0,13.5,42h21A7.523,7.523,0,0,0,42,34.5v-21A7.523,7.523,0,0,0,34.5,6Zm0,3h21A4.477,4.477,0,0,1,39,13.5v21A4.477,4.477,0,0,1,34.5,39h-21A4.477,4.477,0,0,1,9,34.5v-21A4.477,4.477,0,0,1,13.5,9Zm3,6A1.5,1.5,0,0,0,15,16.5v15a1.5,1.5,0,1,0,3,0V26h1a5.5,5.5,0,0,0,0-11ZM18,18h1a2.5,2.5,0,0,1,0,5H18Zm11.051,3a3.75,3.75,0,0,0,0,7.5h1.2a.75.75,0,0,1,0,1.5H28.1a.481.481,0,0,1-.33-.125.467.467,0,0,1-.047-.045,1.5,1.5,0,1,0-2.3,1.928,3.431,3.431,0,0,0,.365.373A3.506,3.506,0,0,0,28.1,33h2.15a3.75,3.75,0,0,0,0-7.5h-1.2a.75.75,0,0,1,0-1.5H30.4a.489.489,0,0,1,.467.32,1.5,1.5,0,1,0,2.8-1.068A3.507,3.507,0,0,0,30.4,21Z" transform="translate(-6 -6)" fill="#303030"/>
</svg>
