<svg xmlns="http://www.w3.org/2000/svg" width="408" height="420" viewBox="0 0 408 420">
  <g id="Skill_Card_8" data-name="Skill Card 8" transform="translate(-252 -336)">
    <rect id="Tile_1" data-name="Tile 1" width="408" height="420" transform="translate(252 336)" fill="none" opacity="0.905"/>
    <circle id="Ellipse_2" data-name="Ellipse 2" cx="94.5" cy="94.5" r="94.5" transform="translate(364 452)" fill="#d0d0d0"/>
    <path id="icons8-iphone" d="M55.823,1H13.975A6.973,6.973,0,0,0,7,7.975v83.7a6.973,6.973,0,0,0,6.975,6.975H55.823A6.973,6.973,0,0,0,62.8,91.672V7.975A6.973,6.973,0,0,0,55.823,1ZM34.9,91.672a3.487,3.487,0,1,1,3.487-3.487A3.489,3.489,0,0,1,34.9,91.672ZM55.823,81.21H13.975V11.462H55.823Z" transform="translate(424 497)" fill="#303030"/>
  </g>
</svg>
