<svg xmlns="http://www.w3.org/2000/svg" width="408" height="420" viewBox="0 0 408 420">
  <g id="Skill_Card_3" data-name="Skill Card 3" transform="translate(-252 -336)">
    <rect id="Tile_1" data-name="Tile 1" width="408" height="420" transform="translate(252 336)" fill="none" opacity="0.905"/>
    <circle id="Ellipse_2" data-name="Ellipse 2" cx="94.5" cy="94.5" r="94.5" transform="translate(364 452)" fill="#d0d0d0"/>
    <path id="protoype_icon" data-name="protoype icon" d="M74.5,5a15.585,15.585,0,0,0-11.1,4.6L47.848,25.156l-2.22-2.22-3.5,3.5a3.363,3.363,0,0,1-4.755-4.755l3.5-3.5L36.66,13.968l-3.5,3.5a3.363,3.363,0,0,1-4.755-4.755l3.5-3.5L29.991,7.3a8.037,8.037,0,0,0-11.1,0L7.3,18.89a7.849,7.849,0,0,0,0,11.1L25.157,47.847,13.776,59.224a7.905,7.905,0,0,0-1.992,3.389l-6.656,23.3a3.36,3.36,0,0,0,4.16,4.156l23.3-6.651a7.84,7.84,0,0,0,3.389-2L47.349,70.039,65.591,88.282a7.855,7.855,0,0,0,11.1,0l11.6-11.6a7.857,7.857,0,0,0,0-11.1l-2.3-2.3-3.5,3.5a3.363,3.363,0,0,1-4.755-4.755l3.5-3.5-4.212-4.212-3.5,3.5a3.363,3.363,0,0,1-4.755-4.755l3.5-3.5-2.22-2.22L85.6,31.79A15.694,15.694,0,0,0,74.5,5Zm0,6.726a8.967,8.967,0,0,1,6.341,15.309l-4.348,4.348L63.814,18.7l4.353-4.348A8.89,8.89,0,0,1,74.5,11.726ZM59.058,23.457,71.739,36.138,31.213,76.665a1.1,1.1,0,0,1-.482.28L13.259,81.937l4.992-17.472a1.116,1.116,0,0,1,.285-.49Z" transform="translate(411.001 499)" fill="#303030"/>
  </g>
</svg>
