<svg xmlns="http://www.w3.org/2000/svg" width="408" height="420" viewBox="0 0 408 420">
  <g id="Skill_Card_9" data-name="Skill Card 9" transform="translate(-252 -336)">
    <rect id="Tile_1" data-name="Tile 1" width="408" height="420" transform="translate(252 336)" fill="none" opacity="0.905"/>
    <circle id="Ellipse_2" data-name="Ellipse 2" cx="94.5" cy="94.5" r="94.5" transform="translate(364 452)" fill="#d0d0d0"/>
    <path id="icons8-storytelling" d="M46.732-.013A3.271,3.271,0,0,0,43.513,3.3V19.653a3.27,3.27,0,1,0,6.541,0V3.3A3.271,3.271,0,0,0,46.732-.013Zm-16.3,6.585a3.27,3.27,0,1,0,3.27,3.27A3.27,3.27,0,0,0,30.432,6.572Zm32.7,0a3.27,3.27,0,1,0,3.27,3.27A3.27,3.27,0,0,0,63.134,6.572ZM14.049,9.81a3.271,3.271,0,0,0-2.28,5.614l6.54,6.54a3.27,3.27,0,1,0,4.625-4.625L16.393,10.8A3.271,3.271,0,0,0,14.049,9.81Zm65.372,0a3.271,3.271,0,0,0-2.248.99l-6.54,6.54a3.27,3.27,0,1,0,4.625,4.625l6.54-6.541A3.271,3.271,0,0,0,79.421,9.81ZM33.7,16.382a3.27,3.27,0,1,0,3.27,3.27A3.27,3.27,0,0,0,33.7,16.382Zm26.162,0a3.27,3.27,0,1,0,3.27,3.27A3.27,3.27,0,0,0,59.864,16.382ZM7.54,26.193a3.27,3.27,0,0,0-3.27,3.27v7.448A6.508,6.508,0,0,0,1,42.544V75.393a6.551,6.551,0,0,0,6.3,6.521,121.611,121.611,0,0,1,33.475,5.7,6.529,6.529,0,0,0,12.021,0,121.62,121.62,0,0,1,33.475-5.71,6.543,6.543,0,0,0,6.3-6.515V42.544a6.508,6.508,0,0,0-3.27-5.633V29.463a3.27,3.27,0,0,0-3.27-3.27c-14.959,0-25.055,1.66-31.5,3.379-5.223,1.393-6.778,2.462-7.741,3.008-.963-.546-2.518-1.616-7.741-3.008C32.6,27.853,22.5,26.193,7.54,26.193Zm3.27,6.719c12.368.251,21.252,1.571,26.545,2.983,4.7,1.254,5.536,1.92,6.157,2.287v39.1c-4.6-1.762-14.2-4.668-32.7-5.11Zm71.945,0V72.174c-18.5.441-28.107,3.348-32.7,5.11v-39.1c.622-.366,1.453-1.032,6.157-2.287C61.5,34.484,70.388,33.164,82.755,32.912Z" transform="translate(412 501.014)" fill="#303030"/>
  </g>
</svg>
