<svg xmlns="http://www.w3.org/2000/svg" width="408" height="420" viewBox="0 0 408 420">
  <g id="Skill_Card_7" data-name="Skill Card 7" transform="translate(-252 -336)">
    <rect id="Tile_1" data-name="Tile 1" width="408" height="420" transform="translate(252 336)" fill="none" opacity="0.905"/>
    <circle id="Ellipse_2" data-name="Ellipse 2" cx="94.5" cy="94.5" r="94.5" transform="translate(364 452)" fill="#d0d0d0"/>
    <path id="icons8-layout" d="M4.279,6A4.287,4.287,0,0,0,0,10.279v59.9a4.287,4.287,0,0,0,4.279,4.279H106.97a4.287,4.287,0,0,0,4.279-4.279v-59.9A4.287,4.287,0,0,0,106.97,6Zm4.279,8.558h94.134V65.9H8.558Zm12.836,4.279a4.287,4.287,0,0,0-4.279,4.279v8.558a4.287,4.287,0,0,0,4.279,4.279H47.067a4.287,4.287,0,0,0,4.279-4.279V23.115a4.287,4.287,0,0,0-4.279-4.279Zm42.788,0A4.287,4.287,0,0,0,59.9,23.115v8.558a4.287,4.287,0,0,0,4.279,4.279H89.855a4.287,4.287,0,0,0,4.279-4.279V23.115a4.287,4.287,0,0,0-4.279-4.279ZM21.394,44.509a4.287,4.287,0,0,0-4.279,4.279v8.558a4.287,4.287,0,0,0,4.279,4.279H47.067a4.287,4.287,0,0,0,4.279-4.279V48.788a4.287,4.287,0,0,0-4.279-4.279Zm42.788,0A4.287,4.287,0,0,0,59.9,48.788v8.558a4.287,4.287,0,0,0,4.279,4.279H89.855a4.287,4.287,0,0,0,4.279-4.279V48.788a4.287,4.287,0,0,0-4.279-4.279ZM42.788,78.74v4.279H21.394A4.434,4.434,0,0,0,17.115,87.3v4.279H94.134V87.3a4.287,4.287,0,0,0-4.279-4.279H68.461V78.74Z" transform="translate(403 498)" fill="#303030"/>
  </g>
</svg>
