<svg xmlns="http://www.w3.org/2000/svg" width="29.263" height="24.024" viewBox="0 0 29.263 24.024">
  <path id="twitter" d="M.554,23.621a17.16,17.16,0,0,0,9.214,2.655A16.85,16.85,0,0,0,26.862,9.143a7,7,0,0,0,2.526-4.737A.925.925,0,0,0,28,3.609a3.822,3.822,0,0,1-3.107.521,6.6,6.6,0,0,0-7.816-1.052,6.349,6.349,0,0,0-3.447,5.951A15.312,15.312,0,0,1,3.692,3.6a.925.925,0,0,0-1.511.123,6.44,6.44,0,0,0-.144,6.36.962.962,0,0,0-.8.957A6.518,6.518,0,0,0,3.5,15.967a.923.923,0,0,0-.237.957,6.633,6.633,0,0,0,3.754,4.022,10.759,10.759,0,0,1-5.86.978.924.924,0,0,0-.609,1.7Zm9.466-2.358a.925.925,0,0,0-.543-1.656,4.82,4.82,0,0,1-3.785-1.969,6.517,6.517,0,0,0,1.262-.2.925.925,0,0,0-.059-1.8A4.743,4.743,0,0,1,3.3,12.41a6.377,6.377,0,0,0,1.41.187.925.925,0,0,0,.526-1.7A4.591,4.591,0,0,1,3.269,5.889a17.18,17.18,0,0,0,11.381,5.08.922.922,0,0,0,.945-1.13,4.509,4.509,0,0,1,2.353-5.134,4.725,4.725,0,0,1,5.776.877c.551.58,2.409.6,3.354.382a5.956,5.956,0,0,1-1.686,1.982.924.924,0,0,0-.393.8,15.025,15.025,0,0,1-4.137,11.04A15.132,15.132,0,0,1,9.769,24.426a15.518,15.518,0,0,1-4.979-.816,12.478,12.478,0,0,0,5.23-2.348Z" transform="translate(-0.124 -2.251)" fill="#707070"/>
</svg>
